<mxfile host="app.diagrams.net" agent="Mozilla/5.0 (Windows NT 10.0; Win64; x64) AppleWebKit/537.36 (KHTML, like Gecko) Chrome/131.0.0.0 Safari/537.36" version="26.0.5">
  <diagram name="Page-1" id="v8nHO-wBjMZclUkaiwIn">
    <mxGraphModel dx="1071" dy="591" grid="1" gridSize="10" guides="1" tooltips="1" connect="1" arrows="1" fold="1" page="1" pageScale="1" pageWidth="850" pageHeight="1100" math="0" shadow="0">
      <root>
        <mxCell id="0" />
        <mxCell id="1" parent="0" />
        <mxCell id="aUYu8zUVZR2pS2-KU-Pr-2" value="" style="ellipse;whiteSpace=wrap;html=1;aspect=fixed;fillColor=#d5e8d4;strokeColor=#82b366;" parent="1" vertex="1">
          <mxGeometry x="200" y="120" width="70" height="70" as="geometry" />
        </mxCell>
        <mxCell id="aUYu8zUVZR2pS2-KU-Pr-4" value="" style="shape=umlActor;verticalLabelPosition=bottom;verticalAlign=top;html=1;outlineConnect=0;fillColor=none;" parent="1" vertex="1">
          <mxGeometry x="220" y="125" width="30" height="60" as="geometry" />
        </mxCell>
        <mxCell id="aUYu8zUVZR2pS2-KU-Pr-11" value="" style="ellipse;whiteSpace=wrap;html=1;aspect=fixed;fillColor=#d5e8d4;strokeColor=#82b366;" parent="1" vertex="1">
          <mxGeometry x="360" y="120" width="70" height="70" as="geometry" />
        </mxCell>
        <mxCell id="aUYu8zUVZR2pS2-KU-Pr-12" value="" style="shape=umlActor;verticalLabelPosition=bottom;verticalAlign=top;html=1;outlineConnect=0;fillColor=none;" parent="1" vertex="1">
          <mxGeometry x="380" y="125" width="30" height="60" as="geometry" />
        </mxCell>
        <mxCell id="aUYu8zUVZR2pS2-KU-Pr-13" value="" style="ellipse;whiteSpace=wrap;html=1;aspect=fixed;fillColor=#d5e8d4;strokeColor=#82b366;" parent="1" vertex="1">
          <mxGeometry x="520" y="120" width="70" height="70" as="geometry" />
        </mxCell>
        <mxCell id="aUYu8zUVZR2pS2-KU-Pr-14" value="" style="shape=umlActor;verticalLabelPosition=bottom;verticalAlign=top;html=1;outlineConnect=0;fillColor=none;" parent="1" vertex="1">
          <mxGeometry x="540" y="125" width="30" height="60" as="geometry" />
        </mxCell>
        <mxCell id="aUYu8zUVZR2pS2-KU-Pr-15" value="" style="rounded=0;whiteSpace=wrap;html=1;fillColor=none;" parent="1" vertex="1">
          <mxGeometry x="80" y="50" width="640" height="510" as="geometry" />
        </mxCell>
        <mxCell id="aUYu8zUVZR2pS2-KU-Pr-16" value="" style="ellipse;whiteSpace=wrap;html=1;aspect=fixed;fillColor=#ffe6cc;strokeColor=#d79b00;" parent="1" vertex="1">
          <mxGeometry x="220" y="270" width="70" height="70" as="geometry" />
        </mxCell>
        <mxCell id="aUYu8zUVZR2pS2-KU-Pr-17" value="" style="shape=umlActor;verticalLabelPosition=bottom;verticalAlign=top;html=1;outlineConnect=0;fillColor=none;" parent="1" vertex="1">
          <mxGeometry x="240" y="275" width="30" height="60" as="geometry" />
        </mxCell>
        <mxCell id="aUYu8zUVZR2pS2-KU-Pr-18" value="" style="ellipse;whiteSpace=wrap;html=1;aspect=fixed;fillColor=#ffe6cc;strokeColor=#d79b00;" parent="1" vertex="1">
          <mxGeometry x="320" y="310" width="70" height="70" as="geometry" />
        </mxCell>
        <mxCell id="aUYu8zUVZR2pS2-KU-Pr-19" value="" style="shape=umlActor;verticalLabelPosition=bottom;verticalAlign=top;html=1;outlineConnect=0;fillColor=none;" parent="1" vertex="1">
          <mxGeometry x="340" y="315" width="30" height="60" as="geometry" />
        </mxCell>
        <mxCell id="aUYu8zUVZR2pS2-KU-Pr-24" value="" style="ellipse;whiteSpace=wrap;html=1;aspect=fixed;fillColor=#ffe6cc;strokeColor=#d79b00;" parent="1" vertex="1">
          <mxGeometry x="450" y="260" width="70" height="70" as="geometry" />
        </mxCell>
        <mxCell id="aUYu8zUVZR2pS2-KU-Pr-25" value="" style="shape=umlActor;verticalLabelPosition=bottom;verticalAlign=top;html=1;outlineConnect=0;fillColor=none;" parent="1" vertex="1">
          <mxGeometry x="470" y="265" width="30" height="60" as="geometry" />
        </mxCell>
        <mxCell id="aUYu8zUVZR2pS2-KU-Pr-26" value="" style="ellipse;whiteSpace=wrap;html=1;aspect=fixed;fillColor=#ffe6cc;strokeColor=#d79b00;" parent="1" vertex="1">
          <mxGeometry x="520" y="375" width="70" height="70" as="geometry" />
        </mxCell>
        <mxCell id="aUYu8zUVZR2pS2-KU-Pr-27" value="" style="shape=umlActor;verticalLabelPosition=bottom;verticalAlign=top;html=1;outlineConnect=0;fillColor=none;" parent="1" vertex="1">
          <mxGeometry x="540" y="380" width="30" height="60" as="geometry" />
        </mxCell>
        <mxCell id="aUYu8zUVZR2pS2-KU-Pr-28" value="" style="ellipse;whiteSpace=wrap;html=1;aspect=fixed;fillColor=#ffe6cc;strokeColor=#d79b00;" parent="1" vertex="1">
          <mxGeometry x="230" y="410" width="70" height="70" as="geometry" />
        </mxCell>
        <mxCell id="aUYu8zUVZR2pS2-KU-Pr-29" value="" style="shape=umlActor;verticalLabelPosition=bottom;verticalAlign=top;html=1;outlineConnect=0;fillColor=none;" parent="1" vertex="1">
          <mxGeometry x="250" y="415" width="30" height="60" as="geometry" />
        </mxCell>
        <mxCell id="aUYu8zUVZR2pS2-KU-Pr-30" value="" style="ellipse;whiteSpace=wrap;html=1;aspect=fixed;fillColor=#ffe6cc;strokeColor=#d79b00;" parent="1" vertex="1">
          <mxGeometry x="560" y="275" width="70" height="70" as="geometry" />
        </mxCell>
        <mxCell id="aUYu8zUVZR2pS2-KU-Pr-31" value="" style="shape=umlActor;verticalLabelPosition=bottom;verticalAlign=top;html=1;outlineConnect=0;fillColor=none;" parent="1" vertex="1">
          <mxGeometry x="580" y="280" width="30" height="60" as="geometry" />
        </mxCell>
        <mxCell id="aUYu8zUVZR2pS2-KU-Pr-32" value="" style="rounded=1;whiteSpace=wrap;html=1;fillColor=#e1d5e7;strokeColor=#9673a6;" parent="1" vertex="1">
          <mxGeometry x="410" y="60" width="40" height="40" as="geometry" />
        </mxCell>
        <mxCell id="aUYu8zUVZR2pS2-KU-Pr-33" value="" style="rounded=1;whiteSpace=wrap;html=1;fillColor=#e1d5e7;strokeColor=#9673a6;" parent="1" vertex="1">
          <mxGeometry x="610" y="180" width="40" height="40" as="geometry" />
        </mxCell>
        <mxCell id="aUYu8zUVZR2pS2-KU-Pr-34" value="" style="rounded=1;whiteSpace=wrap;html=1;fillColor=#e1d5e7;strokeColor=#9673a6;" parent="1" vertex="1">
          <mxGeometry x="150" y="200" width="40" height="40" as="geometry" />
        </mxCell>
        <mxCell id="aUYu8zUVZR2pS2-KU-Pr-35" value="" style="rounded=1;whiteSpace=wrap;html=1;fillColor=#f8cecc;strokeColor=#b85450;" parent="1" vertex="1">
          <mxGeometry x="300" y="180" width="30" height="30" as="geometry" />
        </mxCell>
        <mxCell id="aUYu8zUVZR2pS2-KU-Pr-37" value="" style="rounded=1;whiteSpace=wrap;html=1;fillColor=#dae8fc;strokeColor=#6c8ebf;" parent="1" vertex="1">
          <mxGeometry x="130" y="70" width="30" height="30" as="geometry" />
        </mxCell>
        <mxCell id="aUYu8zUVZR2pS2-KU-Pr-39" value="" style="rounded=1;whiteSpace=wrap;html=1;fillColor=#dae8fc;strokeColor=#6c8ebf;" parent="1" vertex="1">
          <mxGeometry x="630" y="70" width="30" height="30" as="geometry" />
        </mxCell>
        <mxCell id="aUYu8zUVZR2pS2-KU-Pr-40" value="" style="rounded=1;whiteSpace=wrap;html=1;fillColor=#dae8fc;strokeColor=#6c8ebf;" parent="1" vertex="1">
          <mxGeometry x="330" y="70" width="30" height="30" as="geometry" />
        </mxCell>
        <mxCell id="aUYu8zUVZR2pS2-KU-Pr-41" value="" style="rounded=1;whiteSpace=wrap;html=1;fillColor=#dae8fc;strokeColor=#6c8ebf;" parent="1" vertex="1">
          <mxGeometry x="100" y="250" width="30" height="30" as="geometry" />
        </mxCell>
        <mxCell id="aUYu8zUVZR2pS2-KU-Pr-42" value="" style="rounded=1;whiteSpace=wrap;html=1;fillColor=#dae8fc;strokeColor=#6c8ebf;" parent="1" vertex="1">
          <mxGeometry x="660" y="270" width="30" height="30" as="geometry" />
        </mxCell>
        <mxCell id="aUYu8zUVZR2pS2-KU-Pr-44" value="" style="rounded=1;whiteSpace=wrap;html=1;fillColor=#dae8fc;strokeColor=#6c8ebf;" parent="1" vertex="1">
          <mxGeometry x="100" y="385" width="30" height="30" as="geometry" />
        </mxCell>
        <mxCell id="aUYu8zUVZR2pS2-KU-Pr-45" value="" style="rounded=1;whiteSpace=wrap;html=1;fillColor=#dae8fc;strokeColor=#6c8ebf;" parent="1" vertex="1">
          <mxGeometry x="660" y="385" width="30" height="30" as="geometry" />
        </mxCell>
        <mxCell id="zPj7UsXlCmG_Pw2DaR3b-3" value="" style="ellipse;whiteSpace=wrap;html=1;aspect=fixed;fillColor=#ffe6cc;strokeColor=#d79b00;" vertex="1" parent="1">
          <mxGeometry x="330" y="430" width="70" height="70" as="geometry" />
        </mxCell>
        <mxCell id="zPj7UsXlCmG_Pw2DaR3b-4" value="" style="shape=umlActor;verticalLabelPosition=bottom;verticalAlign=top;html=1;outlineConnect=0;fillColor=none;" vertex="1" parent="1">
          <mxGeometry x="350" y="435" width="30" height="60" as="geometry" />
        </mxCell>
        <mxCell id="zPj7UsXlCmG_Pw2DaR3b-5" value="" style="ellipse;whiteSpace=wrap;html=1;aspect=fixed;fillColor=#ffe6cc;strokeColor=#d79b00;" vertex="1" parent="1">
          <mxGeometry x="430" y="415" width="70" height="70" as="geometry" />
        </mxCell>
        <mxCell id="zPj7UsXlCmG_Pw2DaR3b-6" value="" style="shape=umlActor;verticalLabelPosition=bottom;verticalAlign=top;html=1;outlineConnect=0;fillColor=none;" vertex="1" parent="1">
          <mxGeometry x="450" y="420" width="30" height="60" as="geometry" />
        </mxCell>
        <mxCell id="zPj7UsXlCmG_Pw2DaR3b-7" value="" style="ellipse;whiteSpace=wrap;html=1;aspect=fixed;fillColor=#ffe6cc;strokeColor=#d79b00;" vertex="1" parent="1">
          <mxGeometry x="160" y="340" width="70" height="70" as="geometry" />
        </mxCell>
        <mxCell id="zPj7UsXlCmG_Pw2DaR3b-8" value="" style="shape=umlActor;verticalLabelPosition=bottom;verticalAlign=top;html=1;outlineConnect=0;fillColor=none;" vertex="1" parent="1">
          <mxGeometry x="180" y="345" width="30" height="60" as="geometry" />
        </mxCell>
        <mxCell id="zPj7UsXlCmG_Pw2DaR3b-9" value="" style="ellipse;whiteSpace=wrap;html=1;aspect=fixed;fillColor=#ffe6cc;strokeColor=#d79b00;" vertex="1" parent="1">
          <mxGeometry x="410" y="340" width="70" height="70" as="geometry" />
        </mxCell>
        <mxCell id="zPj7UsXlCmG_Pw2DaR3b-10" value="" style="shape=umlActor;verticalLabelPosition=bottom;verticalAlign=top;html=1;outlineConnect=0;fillColor=none;" vertex="1" parent="1">
          <mxGeometry x="430" y="345" width="30" height="60" as="geometry" />
        </mxCell>
      </root>
    </mxGraphModel>
  </diagram>
</mxfile>
